<mxfile host="65bd71144e">
    <diagram id="ESKCpq1kPreq4rdOoigo" name="ページ1">
        <mxGraphModel dx="1478" dy="993" grid="1" gridSize="10" guides="1" tooltips="1" connect="1" arrows="1" fold="1" page="1" pageScale="1" pageWidth="827" pageHeight="1169" math="0" shadow="0">
            <root>
                <mxCell id="0"/>
                <mxCell id="1" parent="0"/>
                <mxCell id="6" value="" style="shape=folder;fontStyle=1;spacingTop=10;tabWidth=40;tabHeight=14;tabPosition=left;html=1;align=center;" vertex="1" parent="1">
                    <mxGeometry x="120" y="80" width="250" height="300" as="geometry"/>
                </mxCell>
                <mxCell id="13" value="UI" style="text;html=1;strokeColor=none;fillColor=none;align=center;verticalAlign=middle;whiteSpace=wrap;rounded=0;" vertex="1" parent="1">
                    <mxGeometry x="170" y="120" width="150" height="30" as="geometry"/>
                </mxCell>
                <mxCell id="18" value="" style="shape=folder;fontStyle=1;spacingTop=10;tabWidth=40;tabHeight=14;tabPosition=left;html=1;align=center;" vertex="1" parent="1">
                    <mxGeometry x="500" y="80" width="250" height="300" as="geometry"/>
                </mxCell>
                <mxCell id="19" value="infrastracture" style="text;html=1;strokeColor=none;fillColor=none;align=center;verticalAlign=middle;whiteSpace=wrap;rounded=0;" vertex="1" parent="1">
                    <mxGeometry x="550" y="110" width="150" height="30" as="geometry"/>
                </mxCell>
                <mxCell id="21" value="page" style="html=1;" vertex="1" parent="1">
                    <mxGeometry x="190" y="290" width="110" height="50" as="geometry"/>
                </mxCell>
                <mxCell id="24" value="" style="shape=folder;fontStyle=1;spacingTop=10;tabWidth=40;tabHeight=14;tabPosition=left;html=1;align=center;" vertex="1" parent="1">
                    <mxGeometry x="139" y="430" width="550" height="180" as="geometry"/>
                </mxCell>
                <mxCell id="25" value="application" style="text;html=1;strokeColor=none;fillColor=none;align=center;verticalAlign=middle;whiteSpace=wrap;rounded=0;" vertex="1" parent="1">
                    <mxGeometry x="339" y="470" width="150" height="30" as="geometry"/>
                </mxCell>
                <mxCell id="27" value="" style="shape=folder;fontStyle=1;spacingTop=10;tabWidth=40;tabHeight=14;tabPosition=left;html=1;align=center;" vertex="1" parent="1">
                    <mxGeometry x="139" y="680" width="550" height="180" as="geometry"/>
                </mxCell>
                <mxCell id="28" value="domain" style="text;html=1;strokeColor=none;fillColor=none;align=center;verticalAlign=middle;whiteSpace=wrap;rounded=0;" vertex="1" parent="1">
                    <mxGeometry x="330" y="710" width="150" height="30" as="geometry"/>
                </mxCell>
                <mxCell id="29" value="アーキテクチャ" style="text;html=1;strokeColor=none;fillColor=none;align=center;verticalAlign=middle;whiteSpace=wrap;rounded=0;fontStyle=1" vertex="1" parent="1">
                    <mxGeometry x="330" y="30" width="150" height="30" as="geometry"/>
                </mxCell>
            </root>
        </mxGraphModel>
    </diagram>
</mxfile>